<svg width="23" height="18" viewBox="0 0 23 18" fill="none" xmlns="http://www.w3.org/2000/svg">
<path d="M0 2.875C0 2.1125 0.302901 1.38123 0.842068 0.842068C1.38124 0.302901 2.1125 0 2.875 0H20.125C20.8875 0 21.6188 0.302901 22.1579 0.842068C22.6971 1.38123 23 2.1125 23 2.875V4.3125H0V2.875ZM0 7.1875V14.375C0 15.1375 0.302901 15.8688 0.842068 16.4079C1.38124 16.9471 2.1125 17.25 2.875 17.25H20.125C20.8875 17.25 21.6188 16.9471 22.1579 16.4079C22.6971 15.8688 23 15.1375 23 14.375V7.1875H0ZM4.3125 10.0625H5.75C6.13125 10.0625 6.49688 10.214 6.76647 10.4835C7.03605 10.7531 7.1875 11.1188 7.1875 11.5V12.9375C7.1875 13.3187 7.03605 13.6844 6.76647 13.954C6.49688 14.2235 6.13125 14.375 5.75 14.375H4.3125C3.93125 14.375 3.56562 14.2235 3.29603 13.954C3.02645 13.6844 2.875 13.3187 2.875 12.9375V11.5C2.875 11.1188 3.02645 10.7531 3.29603 10.4835C3.56562 10.214 3.93125 10.0625 4.3125 10.0625Z" fill="#DF933B"/>
</svg>
