<svg width="63" height="63" viewBox="0 0 63 63" fill="none" xmlns="http://www.w3.org/2000/svg">
<circle cx="31.5" cy="31.5" r="31.5" fill="#DF933B"/>
<path fill-rule="evenodd" clip-rule="evenodd" d="M29.7695 18.0347C30.02 17.7341 30.3308 17.4894 30.6817 17.3163C31.0327 17.1432 31.416 17.0456 31.807 17.0298C32.198 17.0139 32.5879 17.0802 32.9517 17.2244C33.3155 17.3685 33.645 17.5873 33.9191 17.8667L34.0703 18.0347L39.5751 24.6399H43.7541C44.0479 24.6392 44.3385 24.7007 44.6069 24.8202C44.8753 24.9397 45.1154 25.1145 45.3116 25.3333C45.5077 25.552 45.6554 25.8097 45.7451 26.0895C45.8347 26.3693 45.8642 26.6649 45.8317 26.9569L45.7029 28.0293L45.5629 29.0653L45.4481 29.8409L45.3151 30.6739L45.1639 31.5489L44.9931 32.4561L44.8027 33.3815C44.7019 33.8477 44.5941 34.3153 44.4779 34.7787C44.168 36.0084 43.7789 37.2168 43.3131 38.3963L43.0037 39.1523L42.7041 39.8355L42.4213 40.4431L42.2897 40.7147L41.9411 41.4007C41.4931 42.2547 40.6475 42.7587 39.7529 42.8315L39.5289 42.8399H24.2969C23.8074 42.8437 23.3261 42.7144 22.9044 42.4658C22.4828 42.2173 22.1366 41.8588 21.9029 41.4287L21.5781 40.7987L21.3261 40.2807C21.2812 40.1853 21.2369 40.0896 21.1931 39.9937L20.9131 39.3651C20.2739 37.8803 19.7552 36.3466 19.3619 34.7787C19.2859 34.4742 19.2131 34.169 19.1435 33.8631L18.9447 32.9559L18.7669 32.0683L18.6101 31.2101L18.4701 30.3883L18.3483 29.6127L18.2447 28.8945L18.1187 27.9383L18.0263 27.1599C18.0182 27.0885 18.0103 27.0171 18.0025 26.9457C17.9731 26.6706 17.9989 26.3924 18.0782 26.1273C18.1576 25.8622 18.2889 25.6156 18.4646 25.4019C18.6403 25.1882 18.8568 25.0116 19.1015 24.8824C19.3461 24.7533 19.6141 24.6741 19.8897 24.6497L20.0801 24.6399H24.2647L29.7695 18.0347ZM29.0653 31.2507C28.9706 30.9203 28.7577 30.6364 28.4672 30.4529C28.1766 30.2694 27.8288 30.1991 27.4898 30.2555C27.1508 30.3119 26.8444 30.4909 26.6289 30.7586C26.4135 31.0263 26.304 31.3639 26.3213 31.7071L26.3395 31.8695L27.0395 36.0695L27.0745 36.2291C27.1692 36.5594 27.3821 36.8433 27.6726 37.0269C27.9631 37.2104 28.311 37.2806 28.65 37.2242C28.9889 37.1679 29.2953 36.9888 29.5108 36.7211C29.7263 36.4534 29.8358 36.1159 29.8185 35.7727L29.8003 35.6103L29.1003 31.4103L29.0653 31.2507ZM36.3495 30.2595C36.0111 30.203 35.6638 30.2728 35.3734 30.4555C35.0831 30.6382 34.87 30.9212 34.7745 31.2507L34.7395 31.4103L34.0395 35.6103C33.981 35.9625 34.0594 36.3238 34.2585 36.6201C34.4576 36.9165 34.7625 37.1256 35.1107 37.2047C35.4589 37.2837 35.8241 37.2267 36.1317 37.0454C36.4392 36.864 36.6659 36.572 36.7653 36.2291L36.8003 36.0695L37.5003 31.8695C37.561 31.5034 37.4739 31.1282 37.2581 30.8263C37.0423 30.5244 36.7155 30.3205 36.3495 30.2595ZM31.9199 19.8267L27.9089 24.6399H35.9309L31.9199 19.8267Z" fill="#231F20"/>
</svg>
