<svg width="43" height="40" viewBox="0 0 43 40" fill="none" xmlns="http://www.w3.org/2000/svg">
<path fill-rule="evenodd" clip-rule="evenodd" d="M18.236 1.97422C18.6163 1.51799 19.088 1.14653 19.6207 0.883812C20.1534 0.621092 20.7352 0.47294 21.3287 0.448914C21.9221 0.424887 22.514 0.525518 23.0662 0.744317C23.6184 0.963117 24.1186 1.29522 24.5345 1.71922L24.764 1.97422L33.1195 12H39.4626C39.9086 11.999 40.3497 12.0923 40.7571 12.2737C41.1645 12.455 41.529 12.7204 41.8267 13.0524C42.1244 13.3845 42.3486 13.7756 42.4847 14.2003C42.6207 14.625 42.6655 15.0736 42.6161 15.5168L42.4206 17.1446L42.2081 18.7171L42.0339 19.8943L41.832 21.1587L41.6025 22.4868L41.3433 23.8638L41.0543 25.2685C40.9013 25.9761 40.7376 26.6858 40.5613 27.3892C40.0909 29.2557 39.5003 31.0899 38.7933 32.8802L38.3236 34.0277L37.8689 35.0647L37.4396 35.987L37.2399 36.3992L36.7108 37.4405C36.0308 38.7367 34.7473 39.5017 33.3894 39.6122L33.0494 39.625H9.92938C9.18644 39.6308 8.45589 39.4345 7.81585 39.0572C7.1758 38.6799 6.65034 38.1358 6.29563 37.483L5.80263 36.5267L5.42013 35.7405C5.35202 35.5956 5.28473 35.4504 5.21826 35.3048L4.79326 34.3507C3.82308 32.0971 3.0357 29.7691 2.43876 27.3892C2.32345 26.9271 2.21294 26.4639 2.10726 25.9995L1.80551 24.6225L1.53563 23.2752L1.29763 21.9726L1.08513 20.7252L0.900257 19.548L0.743007 18.4578L0.551757 17.0065L0.411507 15.825C0.399256 15.7166 0.387214 15.6082 0.375382 15.4998C0.330838 15.0823 0.369922 14.66 0.490353 14.2577C0.610784 13.8554 0.810149 13.4811 1.07681 13.1566C1.34347 12.8322 1.67209 12.5642 2.04347 12.3681C2.41486 12.1721 2.82158 12.052 3.23988 12.0148L3.52888 12H9.88051L18.236 1.97422ZM17.1671 22.0342C17.0234 21.5328 16.7003 21.1018 16.2593 20.8233C15.8183 20.5447 15.2903 20.4381 14.7758 20.5237C14.2613 20.6093 13.7962 20.8811 13.4691 21.2874C13.1421 21.6937 12.9758 22.2061 13.0021 22.727L13.0298 22.9735L14.0923 29.3485L14.1454 29.5907C14.2891 30.0921 14.6123 30.5231 15.0532 30.8017C15.4942 31.0802 16.0222 31.1868 16.5367 31.1013C17.0512 31.0157 17.5163 30.7439 17.8434 30.3376C18.1704 29.9313 18.3367 29.4189 18.3104 28.898L18.2828 28.6515L17.2203 22.2765L17.1671 22.0342ZM28.2235 20.5297C27.7099 20.4441 27.1827 20.5499 26.742 20.8273C26.3014 21.1046 25.9778 21.5341 25.8329 22.0342L25.7798 22.2765L24.7173 28.6515C24.6286 29.1861 24.7475 29.7345 25.0497 30.1843C25.352 30.6342 25.8147 30.9516 26.3432 31.0715C26.8717 31.1915 27.4261 31.105 27.8929 30.8298C28.3598 30.5545 28.7038 30.1113 28.8546 29.5907L28.9078 29.3485L29.9703 22.9735C30.0624 22.4178 29.9302 21.8483 29.6027 21.3901C29.2751 20.9318 28.7791 20.6224 28.2235 20.5297ZM21.5 4.69422L15.4119 12H27.5881L21.5 4.69422Z" fill="#231F20"/>
</svg>
