<svg width="114" height="114" viewBox="0 0 114 114" fill="none" xmlns="http://www.w3.org/2000/svg">
<rect width="114" height="114" rx="57" fill="#2B2627"/>
<rect x="19" y="34" width="77.3428" height="48" rx="3.22261" fill="#363B38"/>
<rect x="24.2581" y="40.7847" width="13.2297" height="8.81979" rx="1.18728" fill="#EAA500"/>
<rect x="24.2581" y="56.8975" width="13.2297" height="1.86572" rx="0.932862" fill="#545C56"/>
<rect x="40.3711" y="56.8975" width="13.2297" height="1.86572" rx="0.932862" fill="#545C56"/>
<rect x="37.8267" y="67.0742" width="9.49823" height="1.86572" rx="0.932862" fill="#545C56"/>
<rect x="24.7668" y="72.8411" width="21.7102" height="1.86572" rx="0.932862" fill="#545C56"/>
<rect x="56.4841" y="56.7278" width="13.2297" height="1.86572" rx="0.932862" fill="#545C56"/>
<rect x="72.0884" y="56.7278" width="13.2297" height="1.86572" rx="0.932862" fill="#545C56"/>
<rect x="71.0706" y="66.5654" width="8.48056" height="8.48056" rx="4.24028" fill="#545C56"/>
<rect x="77.8552" y="66.5654" width="8.48056" height="8.48056" rx="4.24028" fill="#545C56"/>
<path opacity="0.53" d="M91.2544 34H92.9505C94.824 34 96.3428 35.5188 96.3428 37.3922V79.4558C96.3428 80.8609 95.2037 82 93.7986 82H91.2544H22.1744C20.7052 82 19.4709 80.8953 19.3086 79.435L19.1883 78.3523C19.0879 77.4481 19.7957 76.6572 20.7055 76.6572H77.6855C85.1794 76.6572 91.2544 70.5822 91.2544 63.0883V34Z" fill="#2E322F"/>
</svg>
