<svg width="22" height="26" viewBox="0 0 22 26" fill="none" xmlns="http://www.w3.org/2000/svg">
<path d="M19.3438 11.8448C19.0017 11.4115 18.5851 11.0359 18.1984 10.6604C17.2017 9.79366 16.0711 9.17253 15.119 8.2625C12.9025 6.15354 12.4116 2.67231 13.8248 0C12.4116 0.332233 11.1768 1.08337 10.1206 1.90673C6.26772 4.91127 4.75036 10.2126 6.56524 14.7627C6.62475 14.9072 6.68425 15.0516 6.68425 15.2394C6.68425 15.5572 6.46111 15.8461 6.16359 15.9616C5.82144 16.1061 5.46441 16.0194 5.18176 15.7883C5.09683 15.7201 5.02613 15.6368 4.9735 15.5427C3.2925 13.4771 3.02473 10.5159 4.15531 8.14694C1.671 10.1114 0.317275 13.4338 0.510665 16.5683C0.599922 17.2906 0.689178 18.0128 0.942072 18.7351C1.15034 19.6018 1.55199 20.4685 1.99828 21.234C3.6049 23.733 6.38673 25.5242 9.37683 25.8853C12.5603 26.2753 15.9669 25.712 18.4066 23.5741C21.129 21.1763 22.081 17.3339 20.6827 14.0405L20.4893 13.6649C20.1769 13.0004 19.3438 11.8448 19.3438 11.8448ZM14.643 20.9451C14.2264 21.2918 13.5421 21.6674 13.0066 21.8118C11.3405 22.3896 9.67435 21.5807 8.69253 20.6273C10.4628 20.2229 11.519 18.9517 11.8314 17.6661C12.0843 16.5105 11.6082 15.5572 11.4149 14.4449C11.2363 13.376 11.2661 12.466 11.6677 11.4693C11.9504 12.0182 12.2479 12.5671 12.6049 13.0004C13.7504 14.4449 15.5504 15.0805 15.9372 17.045C15.9967 17.2472 16.0265 17.4495 16.0265 17.6661C16.0711 18.8506 15.5355 20.1507 14.643 20.9451Z" fill="#DF933B"/>
</svg>
