<svg width="32" height="35" viewBox="0 0 32 35" fill="none" xmlns="http://www.w3.org/2000/svg">
<path d="M4.4607 34.0312C3.39114 34.0312 2.47586 33.6507 1.71486 32.8897C0.952561 32.1274 0.571411 31.2115 0.571411 30.142V12.6402C0.571411 12.0244 0.70948 11.441 0.98562 10.89C1.26046 10.339 1.64097 9.88527 2.12713 9.52875L13.795 0.777857C14.1515 0.518572 14.5242 0.324107 14.9132 0.194464C15.3021 0.0648212 15.7072 0 16.1286 0C16.5499 0 16.955 0.0648212 17.344 0.194464C17.7329 0.324107 18.1056 0.518572 18.4621 0.777857L30.13 9.52875C30.6161 9.88527 30.9973 10.339 31.2734 10.89C31.5483 11.441 31.6857 12.0244 31.6857 12.6402V30.142C31.6857 31.2115 31.3052 32.1274 30.5442 32.8897C29.7819 33.6507 28.866 34.0312 27.7964 34.0312H20.0178V20.4188H12.2393V34.0312H4.4607Z" fill="#DF933B"/>
</svg>
