<svg width="20" height="23" viewBox="0 0 20 23" fill="none" xmlns="http://www.w3.org/2000/svg">
<path d="M18.0909 9.54545C18.0909 16.1919 9.54545 21.8889 9.54545 21.8889C9.54545 21.8889 1 16.1919 1 9.54545C1 7.27906 1.90032 5.10549 3.50291 3.50291C5.10549 1.90032 7.27906 1 9.54545 1C11.8119 1 13.9854 1.90032 15.588 3.50291C17.1906 5.10549 18.0909 7.27906 18.0909 9.54545Z" stroke="#DF933B" stroke-width="1.89899" stroke-linecap="round" stroke-linejoin="round"/>
<path d="M9.54526 12.394C11.1184 12.394 12.3937 11.1187 12.3937 9.54551C12.3937 7.97233 11.1184 6.69702 9.54526 6.69702C7.97209 6.69702 6.69678 7.97233 6.69678 9.54551C6.69678 11.1187 7.97209 12.394 9.54526 12.394Z" stroke="#DF933B" stroke-width="1.89899" stroke-linecap="round" stroke-linejoin="round"/>
</svg>
