<svg width="37" height="35" viewBox="0 0 37 35" fill="none" xmlns="http://www.w3.org/2000/svg">
<path d="M3.47646 14.8C2.23542 14.8 1.23333 13.7979 1.23333 12.5569C1.23333 12.4104 1.24875 12.2717 1.27958 12.1252C1.68812 10.5065 4.84083 0 18.5 0C32.1592 0 35.3119 10.5065 35.7204 12.1252C35.759 12.2717 35.7667 12.4104 35.7667 12.5569C35.7667 13.7979 34.7646 14.8 33.5235 14.8H3.47646ZM9.86667 7.4C9.86667 6.72167 9.31167 6.16667 8.63333 6.16667C7.955 6.16667 7.4 6.72167 7.4 7.4C7.4 8.07833 7.955 8.63333 8.63333 8.63333C9.31167 8.63333 9.86667 8.07833 9.86667 7.4ZM28.3667 8.63333C29.045 8.63333 29.6 8.07833 29.6 7.4C29.6 6.72167 29.045 6.16667 28.3667 6.16667C27.6883 6.16667 27.1333 6.72167 27.1333 7.4C27.1333 8.07833 27.6883 8.63333 28.3667 8.63333ZM19.7333 4.93333C19.7333 4.255 19.1783 3.7 18.5 3.7C17.8217 3.7 17.2667 4.255 17.2667 4.93333C17.2667 5.61167 17.8217 6.16667 18.5 6.16667C19.1783 6.16667 19.7333 5.61167 19.7333 4.93333ZM0 20.9667C0 18.924 1.65729 17.2667 3.7 17.2667H33.3C35.3427 17.2667 37 18.924 37 20.9667C37 23.0094 35.3427 24.6667 33.3 24.6667H3.7C1.65729 24.6667 0 23.0094 0 20.9667ZM1.23333 28.3667C1.23333 27.6883 1.78833 27.1333 2.46667 27.1333H34.5333C35.2117 27.1333 35.7667 27.6883 35.7667 28.3667V29.6C35.7667 32.321 33.5544 34.5333 30.8333 34.5333H6.16667C3.44563 34.5333 1.23333 32.321 1.23333 29.6V28.3667Z" fill="#231F20"/>
</svg>
