<svg width="114" height="114" viewBox="0 0 114 114" fill="none" xmlns="http://www.w3.org/2000/svg">
<rect width="114" height="114" rx="57" fill="#2B2627"/>
<g opacity="0.68">
<path fill-rule="evenodd" clip-rule="evenodd" d="M56.4812 97.475V67.5461C64.511 67.4831 71.0009 60.9542 71.0009 52.9096C71.0009 44.8649 64.511 38.336 56.4812 38.273V26.3171C65.038 26.0932 73.6906 29.8229 79.3337 37.5473C80.5211 39.1726 81.3827 41.0124 81.8709 42.9652L82.5256 45.5843C84.7682 54.5545 82.7377 64.0576 77.0252 71.3282L56.4812 97.475Z" fill="#F40000"/>
<path fill-rule="evenodd" clip-rule="evenodd" d="M56.6213 97.4631V67.5325C48.6798 67.4646 42.263 61.0058 42.263 53.0483V52.7441C42.263 44.7866 48.6798 38.3278 56.6213 38.2599V26.3791C48.1314 26.1563 39.5457 29.8745 33.9786 37.5749C32.8219 39.1748 31.9837 40.9821 31.5096 42.8985L30.8451 45.5843C28.6255 54.5559 30.641 64.05 36.3141 71.3461L56.6213 97.4631Z" fill="#FF3636"/>
</g>
</svg>
