<svg width="33" height="37" viewBox="0 0 33 37" fill="none" xmlns="http://www.w3.org/2000/svg">
<path fill-rule="evenodd" clip-rule="evenodd" d="M0 5.83289C0 4.3742 0.579463 2.97525 1.61091 1.9438C2.64236 0.912349 4.04131 0.332886 5.5 0.332886H27.5C28.9587 0.332886 30.3576 0.912349 31.3891 1.9438C32.4205 2.97525 33 4.3742 33 5.83289V35.1662C32.9998 35.5115 32.9021 35.8497 32.7181 36.1419C32.5341 36.4341 32.2713 36.6684 31.96 36.8179C31.6487 36.9673 31.3015 37.0258 30.9585 36.9865C30.6154 36.9473 30.2904 36.812 30.0208 36.5962L26.4843 33.7692L22.1008 36.6916C21.777 36.9077 21.3928 37.0151 21.0039 36.9983C20.6149 36.9815 20.2415 36.8413 19.9375 36.5981L16.5 33.8462L13.0625 36.5962C12.7586 36.8395 12.3851 36.9797 11.9961 36.9965C11.6072 37.0133 11.223 36.9058 10.8992 36.6897L6.51567 33.7674L2.97733 36.5962C2.70776 36.8115 2.38292 36.9463 2.04014 36.9852C1.69737 37.0242 1.35056 36.9656 1.03959 36.8162C0.728624 36.6669 0.466105 36.4328 0.282206 36.1409C0.0983068 35.849 0.000491087 35.5112 0 35.1662V5.83289ZM9.16667 7.66622C8.68044 7.66622 8.21412 7.85937 7.8703 8.20319C7.52649 8.54701 7.33333 9.01332 7.33333 9.49955C7.33333 9.98578 7.52649 10.4521 7.8703 10.7959C8.21412 11.1397 8.68044 11.3329 9.16667 11.3329H23.8333C24.3196 11.3329 24.7859 11.1397 25.1297 10.7959C25.4735 10.4521 25.6667 9.98578 25.6667 9.49955C25.6667 9.01332 25.4735 8.54701 25.1297 8.20319C24.7859 7.85937 24.3196 7.66622 23.8333 7.66622H9.16667ZM9.16667 14.9996C8.68044 14.9996 8.21412 15.1927 7.8703 15.5365C7.52649 15.8803 7.33333 16.3467 7.33333 16.8329C7.33333 17.3191 7.52649 17.7854 7.8703 18.1292C8.21412 18.4731 8.68044 18.6662 9.16667 18.6662H23.8333C24.3196 18.6662 24.7859 18.4731 25.1297 18.1292C25.4735 17.7854 25.6667 17.3191 25.6667 16.8329C25.6667 16.3467 25.4735 15.8803 25.1297 15.5365C24.7859 15.1927 24.3196 14.9996 23.8333 14.9996H9.16667ZM9.16667 22.3329C8.68044 22.3329 8.21412 22.526 7.8703 22.8699C7.52649 23.2137 7.33333 23.68 7.33333 24.1662C7.33333 24.6524 7.52649 25.1188 7.8703 25.4626C8.21412 25.8064 8.68044 25.9996 9.16667 25.9996H16.5C16.9862 25.9996 17.4525 25.8064 17.7964 25.4626C18.1402 25.1188 18.3333 24.6524 18.3333 24.1662C18.3333 23.68 18.1402 23.2137 17.7964 22.8699C17.4525 22.526 16.9862 22.3329 16.5 22.3329H9.16667Z" fill="#231F20"/>
</svg>
