<svg width="24" height="26" viewBox="0 0 24 26" fill="none" xmlns="http://www.w3.org/2000/svg">
<path fill-rule="evenodd" clip-rule="evenodd" d="M0 3.85002C0 2.82893 0.405626 1.84966 1.12765 1.12765C1.84966 0.405626 2.82893 0 3.85002 0H19.2501C20.2712 0 21.2505 0.405626 21.9725 1.12765C22.6945 1.84966 23.1001 2.82893 23.1001 3.85002V24.3835C23.1 24.6252 23.0316 24.8619 22.9028 25.0665C22.774 25.271 22.59 25.435 22.3721 25.5396C22.1542 25.6442 21.9112 25.6851 21.671 25.6577C21.4309 25.6302 21.2034 25.5355 21.0147 25.3845L18.5391 23.4056L15.4707 25.4512C15.244 25.6025 14.9751 25.6777 14.7028 25.6659C14.4305 25.6542 14.1691 25.556 13.9563 25.3857L11.5501 23.4595L9.1438 25.3845C8.93103 25.5547 8.66959 25.6529 8.39732 25.6646C8.12506 25.6764 7.85612 25.6012 7.62946 25.4499L4.56099 23.4043L2.08414 25.3845C1.89544 25.5352 1.66805 25.6295 1.42811 25.6568C1.18816 25.684 0.9454 25.643 0.72772 25.5385C0.51004 25.4339 0.326275 25.2701 0.197545 25.0658C0.0688151 24.8614 0.000343763 24.6249 0 24.3835V3.85002ZM6.4167 5.13336C6.07634 5.13336 5.74992 5.26857 5.50924 5.50924C5.26857 5.74992 5.13336 6.07634 5.13336 6.4167C5.13336 6.75706 5.26857 7.08349 5.50924 7.32416C5.74992 7.56483 6.07634 7.70004 6.4167 7.70004H16.6834C17.0238 7.70004 17.3502 7.56483 17.5909 7.32416C17.8316 7.08349 17.9668 6.75706 17.9668 6.4167C17.9668 6.07634 17.8316 5.74992 17.5909 5.50924C17.3502 5.26857 17.0238 5.13336 16.6834 5.13336H6.4167ZM6.4167 10.2667C6.07634 10.2667 5.74992 10.4019 5.50924 10.6426C5.26857 10.8833 5.13336 11.2097 5.13336 11.5501C5.13336 11.8904 5.26857 12.2168 5.50924 12.4575C5.74992 12.6982 6.07634 12.8334 6.4167 12.8334H16.6834C17.0238 12.8334 17.3502 12.6982 17.5909 12.4575C17.8316 12.2168 17.9668 11.8904 17.9668 11.5501C17.9668 11.2097 17.8316 10.8833 17.5909 10.6426C17.3502 10.4019 17.0238 10.2667 16.6834 10.2667H6.4167ZM6.4167 15.4001C6.07634 15.4001 5.74992 15.5353 5.50924 15.776C5.26857 16.0166 5.13336 16.3431 5.13336 16.6834C5.13336 17.0238 5.26857 17.3502 5.50924 17.5909C5.74992 17.8316 6.07634 17.9668 6.4167 17.9668H11.5501C11.8904 17.9668 12.2168 17.8316 12.4575 17.5909C12.6982 17.3502 12.8334 17.0238 12.8334 16.6834C12.8334 16.3431 12.6982 16.0166 12.4575 15.776C12.2168 15.5353 11.8904 15.4001 11.5501 15.4001H6.4167Z" fill="#DF933B"/>
</svg>
