<svg width="21" height="24" viewBox="0 0 21 24" fill="none" xmlns="http://www.w3.org/2000/svg">
<path d="M10.5 18.2857C11.1962 18.2857 11.8639 18.0449 12.3562 17.6162C12.8484 17.1876 13.125 16.6062 13.125 16C13.125 15.3938 12.8484 14.8124 12.3562 14.3838C11.8639 13.9551 11.1962 13.7143 10.5 13.7143C9.80381 13.7143 9.13613 13.9551 8.64385 14.3838C8.15156 14.8124 7.875 15.3938 7.875 16C7.875 16.6062 8.15156 17.1876 8.64385 17.6162C9.13613 18.0449 9.80381 18.2857 10.5 18.2857ZM18.375 8C19.0712 8 19.7389 8.24082 20.2312 8.66947C20.7234 9.09813 21 9.67951 21 10.2857V21.7143C21 22.3205 20.7234 22.9019 20.2312 23.3305C19.7389 23.7592 19.0712 24 18.375 24H2.625C1.92881 24 1.26113 23.7592 0.768845 23.3305C0.276562 22.9019 0 22.3205 0 21.7143V10.2857C0 9.67951 0.276562 9.09813 0.768845 8.66947C1.26113 8.24082 1.92881 8 2.625 8H3.9375V5.71429C3.9375 4.19876 4.6289 2.74531 5.85961 1.67368C7.09032 0.602039 8.75952 0 10.5 0C11.3618 0 12.2152 0.147804 13.0114 0.434974C13.8076 0.722144 14.531 1.14306 15.1404 1.67368C15.7498 2.2043 16.2332 2.83423 16.563 3.52752C16.8928 4.22081 17.0625 4.96388 17.0625 5.71429V8H18.375ZM10.5 2.28571C9.45571 2.28571 8.45419 2.64694 7.71577 3.28992C6.97734 3.9329 6.5625 4.80497 6.5625 5.71429V8H14.4375V5.71429C14.4375 4.80497 14.0227 3.9329 13.2842 3.28992C12.5458 2.64694 11.5443 2.28571 10.5 2.28571Z" fill="#DF933B"/>
</svg>
