<svg width="14" height="13" viewBox="0 0 14 13" fill="none" xmlns="http://www.w3.org/2000/svg">
<path d="M6.99999 10.7063L3.88749 12.5813C3.74999 12.6688 3.60624 12.7063 3.45624 12.6938C3.30624 12.6813 3.17499 12.6313 3.06249 12.5438C2.94999 12.4563 2.86249 12.347 2.79999 12.216C2.73749 12.0845 2.72499 11.9375 2.76249 11.775L3.58749 8.23127L0.831242 5.85002C0.706242 5.73752 0.628242 5.60927 0.597242 5.46527C0.565742 5.32177 0.574992 5.18127 0.624992 5.04377C0.674992 4.90627 0.749992 4.79377 0.849992 4.70627C0.949992 4.61877 1.08749 4.56252 1.26249 4.53752L4.89999 4.21877L6.30624 0.881275C6.36874 0.731275 6.46574 0.618774 6.59724 0.543774C6.72824 0.468774 6.86249 0.431274 6.99999 0.431274C7.13749 0.431274 7.27199 0.468774 7.40349 0.543774C7.53449 0.618774 7.63124 0.731275 7.69374 0.881275L9.09999 4.21877L12.7375 4.53752C12.9125 4.56252 13.05 4.61877 13.15 4.70627C13.25 4.79377 13.325 4.90627 13.375 5.04377C13.425 5.18127 13.4345 5.32177 13.4035 5.46527C13.372 5.60927 13.2937 5.73752 13.1687 5.85002L10.4125 8.23127L11.2375 11.775C11.275 11.9375 11.2625 12.0845 11.2 12.216C11.1375 12.347 11.05 12.4563 10.9375 12.5438C10.825 12.6313 10.6937 12.6813 10.5437 12.6938C10.3937 12.7063 10.25 12.6688 10.1125 12.5813L6.99999 10.7063Z" fill="#DF933B"/>
</svg>
