<svg width="18" height="21" viewBox="0 0 18 21" fill="none" xmlns="http://www.w3.org/2000/svg">
<path d="M16.9762 3.2857H12.5476V2.17855C12.5476 1.68916 12.3532 1.21982 12.0072 0.873771C11.6611 0.527722 11.1918 0.333313 10.7024 0.333313H7.01191C6.52252 0.333313 6.05318 0.527722 5.70713 0.873771C5.36108 1.21982 5.16667 1.68916 5.16667 2.17855V3.2857H0.738096C0.542341 3.2857 0.354603 3.36346 0.216183 3.50188C0.0777636 3.6403 0 3.82804 0 4.02379C0 4.21955 0.0777636 4.40729 0.216183 4.54571C0.354603 4.68412 0.542341 4.76189 0.738096 4.76189H1.52232L2.39881 18.8282C2.46432 20.0668 3.41369 21 4.6131 21H13.1012C14.3066 21 15.2371 20.0875 15.3155 18.8318L16.192 4.76189H16.9762C17.172 4.76189 17.3597 4.68412 17.4981 4.54571C17.6365 4.40729 17.7143 4.21955 17.7143 4.02379C17.7143 3.82804 17.6365 3.6403 17.4981 3.50188C17.3597 3.36346 17.172 3.2857 16.9762 3.2857ZM5.93106 18.0476H5.90477C5.71348 18.0477 5.52962 17.9736 5.39194 17.8408C5.25425 17.708 5.17349 17.527 5.16667 17.3358L4.79762 7.00247C4.79065 6.80672 4.86173 6.61621 4.99521 6.47286C5.1287 6.32951 5.31367 6.24505 5.50943 6.23808C5.70518 6.23111 5.89569 6.30218 6.03904 6.43567C6.18239 6.56916 6.26684 6.75413 6.27382 6.94988L6.64286 17.2832C6.64638 17.3802 6.63075 17.4769 6.59687 17.5678C6.56299 17.6587 6.51152 17.742 6.44542 17.813C6.37931 17.884 6.29985 17.9412 6.2116 17.9815C6.12334 18.0218 6.02801 18.0442 5.93106 18.0476ZM9.59525 17.3095C9.59525 17.5053 9.51748 17.693 9.37907 17.8314C9.24065 17.9699 9.05291 18.0476 8.85715 18.0476C8.6614 18.0476 8.47366 17.9699 8.33524 17.8314C8.19682 17.693 8.11906 17.5053 8.11906 17.3095V6.97618C8.11906 6.78042 8.19682 6.59268 8.33524 6.45426C8.47366 6.31584 8.6614 6.23808 8.85715 6.23808C9.05291 6.23808 9.24065 6.31584 9.37907 6.45426C9.51748 6.59268 9.59525 6.78042 9.59525 6.97618V17.3095ZM11.0714 3.2857H6.64286V2.17855C6.64231 2.12993 6.65147 2.08169 6.66982 2.03667C6.68817 1.99164 6.71533 1.95074 6.74972 1.91636C6.7841 1.88198 6.825 1.85481 6.87003 1.83646C6.91505 1.81811 6.96329 1.80895 7.01191 1.8095H10.7024C10.751 1.80895 10.7992 1.81811 10.8443 1.83646C10.8893 1.85481 10.9302 1.88198 10.9646 1.91636C10.999 1.95074 11.0261 1.99164 11.0445 2.03667C11.0628 2.08169 11.072 2.12993 11.0714 2.17855V3.2857ZM12.5476 17.3358C12.5408 17.527 12.4601 17.708 12.3224 17.8408C12.1847 17.9736 12.0008 18.0477 11.8095 18.0476H11.7828C11.6859 18.0442 11.5906 18.0217 11.5024 17.9814C11.4142 17.9411 11.3348 17.8838 11.2687 17.8128C11.2027 17.7418 11.1512 17.6585 11.1174 17.5676C11.0835 17.4768 11.0679 17.3801 11.0714 17.2832L11.4405 6.94988C11.4439 6.85295 11.4665 6.75765 11.5067 6.66943C11.547 6.5812 11.6043 6.50177 11.6753 6.43567C11.7462 6.36957 11.8295 6.3181 11.9204 6.2842C12.0113 6.2503 12.108 6.23463 12.2049 6.23808C12.3018 6.24153 12.3971 6.26404 12.4853 6.30433C12.5736 6.34461 12.653 6.40188 12.7191 6.47286C12.7852 6.54384 12.8367 6.62714 12.8706 6.71801C12.9045 6.80888 12.9201 6.90554 12.9167 7.00247L12.5476 17.3358Z" fill="#DF933B"/>
</svg>
